HIERARCHY
ROOT hips
{
	OFFSET 0.000000 104.274902 0.000000
	CHANNELS 6 Xposition Yposition Zposition Xrotation Yrotation Zrotation
	JOINT spine
	{
		OFFSET 0.000000 10.181549 0.131524
		CHANNELS 6 Xposition Yposition Zposition Xrotation Yrotation Zrotation
		JOINT chest
		{
			OFFSET 0.000000 9.893990 -1.470706
			CHANNELS 3 Xrotation Yrotation Zrotation
			JOINT upperChest
			{
				OFFSET 0.000000 9.220787 -1.370637
				CHANNELS 3 Xrotation Yrotation Zrotation
				JOINT neck
				{
					OFFSET 0.000000 16.740372 -2.049022
					CHANNELS 6 Xposition Yposition Zposition Xrotation Yrotation Zrotation
					JOINT head
					{
						OFFSET 0.000000 9.617859 1.684976
						CHANNELS 6 Xposition Yposition Zposition Xrotation Yrotation Zrotation
						JOINT headEnd
						{
							OFFSET 0.000000 22.037384 7.501072
							CHANNELS 6 Xposition Yposition Zposition Xrotation Yrotation Zrotation
							End Site
							{
								OFFSET 0.000000 23.106567 -2.828246
							}
						}
					}
				}
				JOINT rightShoulder
				{
					OFFSET -4.570000 11.014877 -2.160840
					CHANNELS 6 Xposition Yposition Zposition Xrotation Yrotation Zrotation
					JOINT rightUpperArm
					{
						OFFSET -10.592867 -0.524796 -2.232105
						CHANNELS 3 Xrotation Yrotation Zrotation
						JOINT rightLowerArm
						{
							OFFSET -27.841497 0.000000 -0.000002
							CHANNELS 3 Xrotation Yrotation Zrotation
							JOINT rightHand
							{
								OFFSET -28.328812 0.000000 -0.000001
								CHANNELS 3 Xrotation Yrotation Zrotation
								JOINT rightThumbProximal
								{
									OFFSET -2.464798 -1.573990 2.681911
									CHANNELS 6 Xposition Yposition Zposition Xrotation Yrotation Zrotation
									JOINT rightThumbIntermediate
									{
										OFFSET -3.244781 -1.873383 1.873376
										CHANNELS 3 Xrotation Yrotation Zrotation
										JOINT rightThumbDistal
										{
											OFFSET -2.646263 -1.527817 1.527818
											CHANNELS 6 Xposition Yposition Zposition Xrotation Yrotation Zrotation
											JOINT rightHandThumb4
											{
												OFFSET -1.994591 -1.151581 1.151575
												CHANNELS 6 Xposition Yposition Zposition Xrotation Yrotation Zrotation
												End Site
												{
													OFFSET -1.860176 -1.142715 1.365483
												}
											}
										}
									}
								}
								JOINT rightIndexProximal
								{
									OFFSET -9.108299 -0.517883 2.259803
									CHANNELS 6 Xposition Yposition Zposition Xrotation Yrotation Zrotation
									JOINT rightIndexIntermediate
									{
										OFFSET -3.699997 0.000000 0.000000
										CHANNELS 3 Xrotation Yrotation Zrotation
										JOINT rightIndexDistal
										{
											OFFSET -2.850006 0.000000 0.000000
											CHANNELS 3 Xrotation Yrotation Zrotation
											JOINT rightHandIndex4
											{
												OFFSET -2.772194 0.000000 0.000000
												CHANNELS 3 Xrotation Yrotation Zrotation
												End Site
												{
													OFFSET -2.772202 0.000000 -0.000484
												}
											}
										}
									}
								}
								JOINT rightMiddleProximal
								{
									OFFSET -9.532501 0.000000 -0.000000
									CHANNELS 6 Xposition Yposition Zposition Xrotation Yrotation Zrotation
									JOINT rightMiddleIntermediate
									{
										OFFSET -3.699997 0.000000 0.000000
										CHANNELS 3 Xrotation Yrotation Zrotation
										JOINT rightMiddleDistal
										{
											OFFSET -2.949997 0.000000 0.000000
											CHANNELS 3 Xrotation Yrotation Zrotation
											JOINT rightHandMiddle4
											{
												OFFSET -2.946594 0.000000 0.000000
												CHANNELS 3 Xrotation Yrotation Zrotation
												End Site
												{
													OFFSET -2.946602 0.000000 -0.000982
												}
											}
										}
									}
								}
								JOINT rightRingProximal
								{
									OFFSET -9.103600 -0.043106 -1.865100
									CHANNELS 6 Xposition Yposition Zposition Xrotation Yrotation Zrotation
									JOINT rightRingIntermediate
									{
										OFFSET -3.379303 0.000000 0.000000
										CHANNELS 3 Xrotation Yrotation Zrotation
										JOINT rightRingDistal
										{
											OFFSET -2.889694 0.000000 0.000000
											CHANNELS 3 Xrotation Yrotation Zrotation
											JOINT rightHandRing4
											{
												OFFSET -2.638802 0.000000 0.000000
												CHANNELS 3 Xrotation Yrotation Zrotation
												End Site
												{
													OFFSET -2.638802 0.000000 0.004218
												}
											}
										}
									}
								}
								JOINT rightLittleProximal
								{
									OFFSET -8.076698 -0.486725 -3.806299
									CHANNELS 6 Xposition Yposition Zposition Xrotation Yrotation Zrotation
									JOINT rightLittleIntermediate
									{
										OFFSET -3.600006 0.000000 0.000000
										CHANNELS 3 Xrotation Yrotation Zrotation
										JOINT rightLittleDistal
										{
											OFFSET -2.099998 0.000000 0.000000
											CHANNELS 3 Xrotation Yrotation Zrotation
											JOINT rightHandPinky4
											{
												OFFSET -2.115791 0.000000 0.000000
												CHANNELS 3 Xrotation Yrotation Zrotation
												End Site
												{
													OFFSET -2.115799 0.000000 0.000174
												}
											}
										}
									}
								}
							}
						}
					}
				}
				JOINT leftShoulder
				{
					OFFSET 4.570400 11.014679 -2.160816
					CHANNELS 6 Xposition Yposition Zposition Xrotation Yrotation Zrotation
					JOINT leftUpperArm
					{
						OFFSET 10.592373 -0.524597 -2.232116
						CHANNELS 3 Xrotation Yrotation Zrotation
						JOINT leftLowerArm
						{
							OFFSET 27.841488 0.000000 0.000001
							CHANNELS 3 Xrotation Yrotation Zrotation
							JOINT leftHand
							{
								OFFSET 28.328808 0.000000 -0.000000
								CHANNELS 3 Xrotation Yrotation Zrotation
								JOINT leftThumbProximal
								{
									OFFSET 2.466103 -1.576202 2.681698
									CHANNELS 6 Xposition Yposition Zposition Xrotation Yrotation Zrotation
									JOINT leftThumbIntermediate
									{
										OFFSET 3.243317 -1.872528 1.872530
										CHANNELS 3 Xrotation Yrotation Zrotation
										JOINT leftThumbDistal
										{
											OFFSET 2.647881 -1.528763 1.528754
											CHANNELS 6 Xposition Yposition Zposition Xrotation Yrotation Zrotation
											JOINT leftHandThumb4
											{
												OFFSET 1.998924 -1.154083 1.154080
												CHANNELS 6 Xposition Yposition Zposition Xrotation Yrotation Zrotation
												End Site
												{
													OFFSET 1.884041 -1.149155 1.337651
												}
											}
										}
									}
								}
								JOINT leftIndexProximal
								{
									OFFSET 9.109299 -0.518005 2.259900
									CHANNELS 6 Xposition Yposition Zposition Xrotation Yrotation Zrotation
									JOINT leftIndexIntermediate
									{
										OFFSET 3.699997 0.000000 0.000000
										CHANNELS 3 Xrotation Yrotation Zrotation
										JOINT leftIndexDistal
										{
											OFFSET 2.850006 0.000000 0.000000
											CHANNELS 3 Xrotation Yrotation Zrotation
											JOINT leftHandIndex4
											{
												OFFSET 2.774895 0.000000 0.000000
												CHANNELS 3 Xrotation Yrotation Zrotation
												End Site
												{
													OFFSET 2.774902 0.000000 -0.000072
												}
											}
										}
									}
								}
								JOINT leftMiddleProximal
								{
									OFFSET 9.533401 0.000000 0.000000
									CHANNELS 6 Xposition Yposition Zposition Xrotation Yrotation Zrotation
									JOINT leftMiddleIntermediate
									{
										OFFSET 3.699997 0.000000 0.000000
										CHANNELS 3 Xrotation Yrotation Zrotation
										JOINT leftMiddleDistal
										{
											OFFSET 2.949997 0.000000 0.000000
											CHANNELS 3 Xrotation Yrotation Zrotation
											JOINT leftHandMiddle4
											{
												OFFSET 2.952896 0.000000 0.000000
												CHANNELS 3 Xrotation Yrotation Zrotation
												End Site
												{
													OFFSET 2.952904 0.000000 0.000165
												}
											}
										}
									}
								}
								JOINT leftRingProximal
								{
									OFFSET 9.104500 -0.042999 -1.865101
									CHANNELS 6 Xposition Yposition Zposition Xrotation Yrotation Zrotation
									JOINT leftRingIntermediate
									{
										OFFSET 3.149994 0.000000 0.000000
										CHANNELS 3 Xrotation Yrotation Zrotation
										JOINT leftRingDistal
										{
											OFFSET 2.950005 0.000000 0.000000
											CHANNELS 3 Xrotation Yrotation Zrotation
											JOINT leftHandRing4
											{
												OFFSET 2.644302 0.000000 0.000000
												CHANNELS 3 Xrotation Yrotation Zrotation
												End Site
												{
													OFFSET 2.644302 0.000000 0.000083
												}
											}
										}
									}
								}
								JOINT leftLittleProximal
								{
									OFFSET 8.077805 -0.486893 -3.806302
									CHANNELS 6 Xposition Yposition Zposition Xrotation Yrotation Zrotation
									JOINT leftLittleIntermediate
									{
										OFFSET 3.600006 0.000000 0.000000
										CHANNELS 3 Xrotation Yrotation Zrotation
										JOINT leftLittleDistal
										{
											OFFSET 2.099998 0.000000 0.000000
											CHANNELS 3 Xrotation Yrotation Zrotation
											JOINT leftHandPinky4
											{
												OFFSET 2.125496 0.000000 0.000000
												CHANNELS 3 Xrotation Yrotation Zrotation
												End Site
												{
													OFFSET 2.125504 0.000000 -0.001254
												}
											}
										}
									}
								}
							}
						}
					}
				}
			}
		}
	}
	JOINT rightUpperLeg
	{
		OFFSET -8.207800 -6.751701 -1.599544
		CHANNELS 6 Xposition Yposition Zposition Xrotation Yrotation Zrotation
		JOINT rightLowerLeg
		{
			OFFSET 0.000004 -44.370152 0.345934
			CHANNELS 3 Xrotation Yrotation Zrotation
			JOINT rightFoot
			{
				OFFSET 0.000004 -44.423664 -3.043535
				CHANNELS 3 Xrotation Yrotation Zrotation
				JOINT rightToes
				{
					OFFSET 0.000001 -8.728691 10.710592
					CHANNELS 3 Xrotation Yrotation Zrotation
					JOINT rightToesEnd
					{
						OFFSET 0.000000 -0.000665 9.278101
						CHANNELS 3 Xrotation Yrotation Zrotation
						End Site
						{
							OFFSET 0.000000 -0.000665 9.278103
						}
					}
				}
			}
		}
	}
	JOINT leftUpperLeg
	{
		OFFSET 8.207800 -6.751701 -1.599544
		CHANNELS 6 Xposition Yposition Zposition Xrotation Yrotation Zrotation
		JOINT leftLowerLeg
		{
			OFFSET 0.000004 -44.370037 0.346940
			CHANNELS 3 Xrotation Yrotation Zrotation
			JOINT leftFoot
			{
				OFFSET 0.000004 -44.423611 -3.044388
				CHANNELS 3 Xrotation Yrotation Zrotation
				JOINT leftToes
				{
					OFFSET 0.000001 -8.728690 10.710592
					CHANNELS 3 Xrotation Yrotation Zrotation
					JOINT leftToesEnd
					{
						OFFSET 0.000000 -0.000680 9.278101
						CHANNELS 3 Xrotation Yrotation Zrotation
						End Site
						{
							OFFSET 0.000000 -0.000680 9.278101
						}
					}
				}
			}
		}
	}
}
MOTION
Frames: 4
Frame Time: 0.033333
-54.127270 94.107971 22.505924 -192.443326 -132.103454 -187.028666 0.000000 10.181548 0.131515 -1.836402 18.848503 6.640617 6.483476 2.481387 -2.887765 6.599128 2.444536 -2.646498 -0.000004 16.740374 -2.049021 -1.092640 -1.205101 0.088307 -0.000000 9.617849 1.684979 -0.249107 -4.094552 -10.511376 0.000011 22.037354 7.501076 0.000000 -0.000000 -0.000000 -4.570004 11.014853 -2.160838 1.896551 12.923462 8.074379 10.342424 1.198027 74.907969 -0.000006 29.046677 0.000018 -0.703383 -3.942239 -22.491378 -2.464792 -1.573982 2.681906 -1.675459 -19.703938 -7.089821 5.118901 -13.930182 -0.598151 -2.646264 -1.527793 1.527818 -0.382457 -9.992836 -3.138595 -1.994594 -1.151608 1.151575 -0.000002 -0.000000 0.000005 -9.108300 -0.517883 2.259802 0.015436 0.463934 -3.809784 0.000001 0.000004 -0.000023 0.020321 0.532286 -4.372073 -0.000000 -0.000000 0.000002 -9.532492 0.000014 -0.000001 0.133641 -1.359372 11.228392 0.041336 -0.758656 6.237948 0.002974 0.203777 -1.672402 0.000001 -0.000001 0.000000 -9.103590 -0.043111 -1.865101 0.937884 -3.492607 30.054014 0.216074 -1.723262 14.292519 0.001819 -0.159449 1.308473 -0.000000 0.000000 -0.000000 -8.076684 -0.486721 -3.806298 2.060465 -4.944400 45.224909 0.445641 -2.453603 20.585700 0.015382 -0.463006 3.802127 -0.000000 0.000000 -0.000000 4.570401 11.014690 -2.160817 0.345673 -0.307539 -0.888063 -11.043546 -18.871686 -71.214940 -0.000008 -12.958220 0.000003 -22.578172 -26.425387 7.350122 2.466095 -1.576208 2.681684 -2.229571 22.637460 9.128556 4.766327 18.189067 1.497611 2.647882 -1.528758 1.528761 -1.384187 8.809150 7.207736 1.998917 -1.154097 1.154084 -0.000000 0.000004 0.000003 9.109297 -0.518012 2.259889 0.226027 -1.753078 14.691515 0.000962 0.115610 -0.958050 0.140339 1.385928 -11.564773 0.000001 0.000002 0.000000 9.533392 0.000005 -0.000015 0.131156 -1.340169 11.177826 0.045870 0.795158 -6.603819 0.296335 2.002107 -16.837958 0.000001 0.000000 -0.000001 9.104488 -0.042996 -1.865108 0.048272 -0.815547 6.774035 0.196735 1.637562 -13.703107 0.566979 2.740924 -23.371905 -0.000002 0.000004 -0.000002 8.077797 -0.486897 -3.806314 -0.238262 3.652357 3.786219 0.396141 -1.758061 -19.918792 0.839954 3.300809 -28.548133 -0.000001 0.000001 0.000001 -8.207800 -6.751715 -1.599545 -25.708123 -6.341134 1.739855 75.161273 -9.315799 -8.650830 -6.241064 -11.124785 -0.611976 -0.286684 -0.000001 -0.000001 -0.000002 -0.000001 -0.000003 8.207802 -6.751701 -1.599548 -17.070528 -4.885328 -8.866101 50.196115 7.940679 0.215779 -25.349776 5.188008 0.118246 -0.000038 -0.000003 -0.000005 -0.000000 -0.000003 0.000000 
-54.909061 93.789772 23.096628 -190.551595 -147.511117 -186.446406 -0.000003 10.181551 0.131522 -4.376597 9.574312 2.234189 7.903815 1.482141 1.614981 7.906599 1.452544 1.754237 0.000007 16.740335 -2.049014 -2.069895 -1.116432 0.516510 -0.000007 9.617846 1.684969 0.603027 -2.495427 -14.627859 -0.000005 22.037384 7.501072 -0.000000 -0.000000 -0.000000 -4.569999 11.014872 -2.160837 1.784850 11.312266 8.269990 6.376616 -8.040868 68.069481 -0.000021 37.600922 0.000035 -0.089934 -9.473184 -22.421182 -2.464796 -1.573998 2.681908 -1.675460 -19.703940 -7.089818 5.118898 -13.930184 -0.598147 -2.646262 -1.527805 1.527811 -0.382450 -9.992831 -3.138596 -1.994590 -1.151585 1.151570 -0.000001 -0.000005 -0.000000 -9.108302 -0.517864 2.259804 0.025453 0.595644 -4.893742 0.000001 0.000002 0.000018 0.060198 0.914838 -7.529135 0.000001 -0.000001 0.000002 -9.532510 0.000012 -0.000003 0.047063 -0.809290 6.656113 0.052076 -0.851151 7.002224 0.010298 0.379236 -3.113551 -0.000002 0.000001 -0.000002 -9.103593 -0.043109 -1.865104 0.467856 -2.511883 21.098418 0.273699 -1.935317 16.097533 0.003750 -0.228941 1.878905 -0.000001 0.000001 0.000000 -8.076684 -0.486725 -3.806298 1.106566 -3.768581 32.717552 0.568116 -2.757407 23.278962 0.037263 -0.720415 5.922337 -0.000000 -0.000001 -0.000002 4.570405 11.014660 -2.160809 0.405943 -1.139127 -0.860686 -21.410124 -24.147599 -72.941530 -0.000000 -0.000021 0.000006 -37.284876 -29.084735 -3.192347 2.466101 -1.576192 2.681706 -2.229574 22.637462 9.128562 4.766328 18.189064 1.497611 2.647881 -1.528753 1.528744 -1.384184 8.809158 7.207741 1.998925 -1.154091 1.154077 -0.000000 0.000001 -0.000000 9.109304 -0.518019 2.259909 0.075038 -1.015764 8.448345 0.001409 0.139866 -1.159039 0.128758 1.328111 -11.075849 0.000000 0.000000 -0.000000 9.533396 0.000000 0.000007 0.061800 -0.922259 7.665514 0.032733 0.672048 -5.577702 0.266251 1.899927 -15.954388 -0.000003 0.000004 0.000000 9.104496 -0.043002 -1.865086 0.046734 -0.802369 6.664084 0.129557 1.332235 -11.110726 0.504322 2.591233 -22.024608 0.000001 -0.000002 -0.000001 8.077803 -0.486889 -3.806287 -0.397460 3.322324 6.403389 0.253009 -2.198321 -16.087097 0.743816 3.117923 -26.831377 -0.000001 -0.000000 -0.000001 -8.207801 -6.751710 -1.599546 -25.755692 -8.268075 1.394711 76.461912 -9.383334 -5.499238 -9.327037 -8.751317 1.247816 1.319806 0.000003 -0.000002 -0.000001 0.000000 -0.000002 8.207802 -6.751700 -1.599552 -17.143314 -7.093532 -7.640922 52.388487 0.833110 3.026110 -26.377076 -0.176667 1.403533 -0.324835 0.000032 -0.000001 -0.000000 -0.000000 0.000000 
-55.630756 93.350159 23.869925 -189.437428 -163.000375 -186.341863 0.000003 10.181547 0.131528 -6.604976 -1.996792 -2.578448 9.253292 0.185588 5.371769 9.278546 0.143689 5.332412 0.000006 16.740349 -2.049019 -1.684498 -0.489526 -0.247334 -0.000001 9.617852 1.684974 1.380472 0.940198 -17.340370 -0.000004 22.037369 7.501080 -0.000000 -0.000001 0.000001 -4.569994 11.014868 -2.160841 1.698437 10.129494 8.643645 -1.953027 -11.613270 61.084868 -0.000024 42.761940 0.000029 -6.630811 -10.161721 -23.334935 -2.464801 -1.573986 2.681911 -1.675459 -19.703940 -7.089819 5.118901 -13.930184 -0.598155 -2.646260 -1.527794 1.527798 -0.382455 -9.992837 -3.138596 -1.994603 -1.151582 1.151572 0.000001 -0.000004 0.000005 -9.108292 -0.517865 2.259802 0.011718 0.404390 -3.320198 -0.000002 0.000006 0.000052 0.094825 1.146688 -9.453343 -0.000002 -0.000001 0.000000 -9.532495 0.000018 0.000000 0.015866 -0.470467 3.863493 0.041242 -0.757759 6.230490 0.013493 0.433913 -3.562869 0.000002 -0.000003 0.000003 -9.103591 -0.043108 -1.865100 0.174582 -1.551434 12.840852 0.219424 -1.736328 14.403279 0.010880 -0.389397 3.196904 -0.000003 -0.000000 -0.000001 -8.076688 -0.486726 -3.806299 0.423151 -2.392922 20.053755 0.458875 -2.488495 20.892490 0.078767 -1.045869 8.615325 -0.000002 0.000001 0.000001 4.570405 11.014672 -2.160815 0.490981 -2.348296 -0.322570 -17.698584 -21.955645 -69.514257 -0.000002 -7.060115 -0.000001 -42.734663 -21.292654 0.049279 2.466105 -1.576216 2.681693 -2.229575 22.637462 9.128561 4.766328 18.189067 1.497611 2.647895 -1.528751 1.528748 -1.384183 8.809153 7.207737 1.998929 -1.154075 1.154074 0.000001 0.000007 0.000001 9.109301 -0.518035 2.259897 0.000192 -0.051638 0.427874 0.008762 0.348087 -2.885438 0.120423 1.284742 -10.709694 -0.000001 0.000003 0.000000 9.533401 -0.000015 -0.000008 0.007786 -0.328174 2.720374 0.038676 0.730127 -6.061605 0.235294 1.788197 -14.992713 0.000000 0.000002 -0.000001 9.104500 -0.042996 -1.865098 0.032436 -0.668810 5.550860 0.105077 1.200898 -10.003264 0.431333 2.403120 -20.349668 0.000000 -0.000000 0.000002 8.077803 -0.486885 -3.806300 -0.506520 3.071029 8.359059 0.179239 -2.475258 -13.715464 0.626307 2.874158 -24.583275 -0.000001 0.000007 0.000003 -8.207798 -6.751722 -1.599540 -25.139635 -7.844354 0.569623 76.218730 -9.554569 -1.017859 -13.447693 -7.276279 3.027993 1.126644 -0.000001 0.000008 0.000001 0.000001 -0.000000 8.207804 -6.751704 -1.599542 -17.687922 -7.838678 -6.736314 55.397626 -6.655138 7.134951 -26.902918 -5.725279 2.767800 -0.697653 0.000012 -0.000001 -0.000000 0.000001 0.000000 
-56.225418 92.943390 24.524647 -189.389644 -174.943152 -186.261431 0.000001 10.181549 0.131525 -7.167702 -10.500339 -5.633333 9.843961 -0.829318 7.113756 9.957664 -0.885114 6.920896 -0.000001 16.740370 -2.049019 -1.013250 0.065465 -1.447248 -0.000005 9.617863 1.684974 2.341442 3.439430 -17.559583 0.000015 22.037369 7.501073 -0.000000 0.000000 -0.000000 -4.570002 11.014874 -2.160836 1.707000 10.229529 8.872111 -9.477905 -10.430043 56.260767 -0.000036 43.321223 0.000063 -14.286588 -6.655581 -23.912735 -2.464784 -1.573971 2.681899 -1.675463 -19.703945 -7.089818 5.118896 -13.930185 -0.598154 -2.646278 -1.527794 1.527820 -0.382450 -9.992831 -3.138592 -1.994590 -1.151598 1.151572 0.000001 -0.000001 -0.000000 -9.108306 -0.517872 2.259792 0.000099 -0.038279 0.314121 0.000006 0.000006 0.000117 0.104553 1.203676 -9.928025 -0.000003 -0.000001 -0.000001 -9.532494 0.000016 -0.000012 0.017110 -0.488494 4.011882 0.020222 -0.530917 4.360943 0.013420 0.432729 -3.553216 -0.000000 0.000003 -0.000002 -9.103599 -0.043098 -1.865112 0.079153 -1.048258 8.635324 0.107727 -1.221801 10.079024 0.016919 -0.485761 3.989295 -0.000003 0.000001 -0.000002 -8.076702 -0.486714 -3.806308 0.161567 -1.493145 12.350490 0.227467 -1.767389 14.666754 0.105228 -1.207479 9.959684 -0.000005 0.000002 0.000000 4.570397 11.014666 -2.160812 0.537812 -2.766451 0.615816 -11.869795 -16.768068 -65.801858 -0.000008 -17.497099 0.000003 -41.611111 -14.261797 7.177597 2.466109 -1.576202 2.681701 -2.229574 22.637463 9.128556 4.766331 18.189069 1.497611 2.647895 -1.528770 1.528767 -1.384185 8.809153 7.207743 1.998916 -1.154083 1.154069 -0.000001 -0.000003 0.000003 9.109303 -0.518009 2.259898 0.070907 0.987663 -8.212904 0.037927 0.723387 -6.005452 0.122673 1.296644 -10.810242 -0.000000 0.000003 -0.000000 9.533410 0.000006 0.000000 0.008277 0.338250 -2.803938 0.064602 0.943074 -7.839678 0.218873 1.725639 -14.456326 -0.000001 -0.000001 0.000000 9.104510 -0.042991 -1.865099 0.016081 -0.471212 3.907737 0.106394 1.208219 -10.064848 0.378317 2.255172 -19.045385 0.000001 0.000002 -0.000001 8.077803 -0.486895 -3.806297 -0.582532 2.880446 9.823181 0.143574 -2.628890 -12.409985 0.533460 2.662043 -22.660496 -0.000001 0.000004 0.000001 -8.207799 -6.751711 -1.599536 -24.232041 -4.400613 0.971387 74.772430 -9.916326 2.113633 -16.821865 -6.449403 3.995832 0.946370 0.000015 -0.000005 0.000001 -0.000000 0.000001 8.207801 -6.751701 -1.599542 -17.951132 -8.157247 -5.877940 57.781481 -9.586320 9.990373 -27.285607 -12.462495 2.695632 -1.709274 0.000008 -0.000000 0.000000 -0.000000 0.000000 
